# xmcd
#
# Track frame offsets: 
#        150
#        10650
#        21968
#        32437
#        41677
#        49685
#        58474
#        68186
#        78650
#        91202
#        102764
#        114249
#
# Disc length: 1683 seconds
#
# Revision: 0
# Processed by: cddbd v1.5.1PL0 Copyright (c) Steve Scherf et al.
# Submitted via: ExactAudioCopy v0.95a5
#
DISCID=9206910c
DTITLE=Johnny Cash - Johnny Cash American Classics Vol 2
DYEAR=2004
DGENRE=Country
TTITLE0=Hey! Porter
TTITLE1=Cry, Cry, Cry
TTITLE2=Get Rhythm
TTITLE3=Katy Too
TTITLE4=Come In Stranger
TTITLE5=I Forgot To Remember To Forget
TTITLE6=New Mexico
TTITLE7=Straight A's In Love
TTITLE8=Goodnight Irene
TTITLE9=Oh Lonesome Me
TTITLE10=I Love You Because
TTITLE11=Doin' My Time
EXTD=
EXTT0=
EXTT1=
EXTT2=
EXTT3=
EXTT4=
EXTT5=
EXTT6=
EXTT7=
EXTT8=
EXTT9=
EXTT10=
EXTT11=
PLAYORDER=
